<?xml version="1.0" encoding="UTF-8" standalone="no"?>
<svg
   width="1920"
   zoomAndPan="magnify"
   viewBox="0 0 1440 599.99999"
   height="800"
   preserveAspectRatio="xMidYMid"
   version="1.0"
   id="svg466"
   sodipodi:docname="IDM4B.svg"
   inkscape:version="1.2.2 (732a01da63, 2022-12-09)"
   xmlns:inkscape="http://www.inkscape.org/namespaces/inkscape"
   xmlns:sodipodi="http://sodipodi.sourceforge.net/DTD/sodipodi-0.dtd"
   xmlns="http://www.w3.org/2000/svg"
   xmlns:svg="http://www.w3.org/2000/svg">
  <sodipodi:namedview
     id="namedview468"
     pagecolor="#ffffff"
     bordercolor="#000000"
     borderopacity="0.25"
     inkscape:showpageshadow="2"
     inkscape:pageopacity="0.0"
     inkscape:pagecheckerboard="0"
     inkscape:deskcolor="#d1d1d1"
     showgrid="false"
     inkscape:zoom="0.7953125"
     inkscape:cx="919.13556"
     inkscape:cy="539.41061"
     inkscape:window-width="3440"
     inkscape:window-height="1334"
     inkscape:window-x="-11"
     inkscape:window-y="-11"
     inkscape:window-maximized="1"
     inkscape:current-layer="svg466" />
  <defs
     id="defs88">
    <g
       id="g2" />
    <clipPath
       id="3dc0dd62ca">
      <path
         d="m 326.32031,228.28516 h 51.75391 v 51.75781 h -51.75391 z m 0,0"
         clip-rule="nonzero"
         id="path4" />
    </clipPath>
    <clipPath
       id="c9453af891">
      <path
         d="m 352.19922,228.28516 c -14.29297,0 -25.87891,11.58593 -25.87891,25.8789 0,14.29297 11.58594,25.87891 25.87891,25.87891 14.28906,0 25.875,-11.58594 25.875,-25.87891 0,-14.29297 -11.58594,-25.8789 -25.875,-25.8789 z m 0,0"
         clip-rule="nonzero"
         id="path7" />
    </clipPath>
    <clipPath
       id="d687d161ef">
      <path
         d="m 503.39062,228.28516 h 51.75391 v 51.75781 h -51.75391 z m 0,0"
         clip-rule="nonzero"
         id="path10" />
    </clipPath>
    <clipPath
       id="d0b7c4378f">
      <path
         d="m 529.26562,228.28516 c -14.28906,0 -25.875,11.58593 -25.875,25.8789 0,14.29297 11.58594,25.87891 25.875,25.87891 14.29297,0 25.87891,-11.58594 25.87891,-25.87891 0,-14.29297 -11.58594,-25.8789 -25.87891,-25.8789 z m 0,0"
         clip-rule="nonzero"
         id="path13" />
    </clipPath>
    <clipPath
       id="d6caae4450">
      <path
         d="m 326.15234,305.58594 h 51.75391 v 51.75781 h -51.75391 z m 0,0"
         clip-rule="nonzero"
         id="path16" />
    </clipPath>
    <clipPath
       id="f48b71520e">
      <path
         d="m 352.02734,305.58594 c -14.28906,0 -25.875,11.58593 -25.875,25.8789 0,14.29297 11.58594,25.87891 25.875,25.87891 14.29297,0 25.87891,-11.58594 25.87891,-25.87891 0,-14.29297 -11.58594,-25.8789 -25.87891,-25.8789 z m 0,0"
         clip-rule="nonzero"
         id="path19" />
    </clipPath>
    <clipPath
       id="21beb6fe7b">
      <path
         d="M 593.11719,305.58594 H 644.875 v 51.75781 h -51.75781 z m 0,0"
         clip-rule="nonzero"
         id="path22" />
    </clipPath>
    <clipPath
       id="5cb869622d">
      <path
         d="m 618.99609,305.58594 c -14.29297,0 -25.8789,11.58593 -25.8789,25.8789 0,14.29297 11.58593,25.87891 25.8789,25.87891 14.29297,0 25.87891,-11.58594 25.87891,-25.87891 0,-14.29297 -11.58594,-25.8789 -25.87891,-25.8789 z m 0,0"
         clip-rule="nonzero"
         id="path25" />
    </clipPath>
    <clipPath
       id="506cf7e093">
      <path
         d="m 414.44531,449.19141 h 51.75391 v 51.7539 h -51.75391 z m 0,0"
         clip-rule="nonzero"
         id="path28" />
    </clipPath>
    <clipPath
       id="874f7923a1">
      <path
         d="m 440.32031,449.19141 c -14.28906,0 -25.875,11.58593 -25.875,25.8789 0,14.28906 11.58594,25.875 25.875,25.875 14.29297,0 25.87891,-11.58594 25.87891,-25.875 0,-14.29297 -11.58594,-25.8789 -25.87891,-25.8789 z m 0,0"
         clip-rule="nonzero"
         id="path31" />
    </clipPath>
    <clipPath
       id="5fbe1d8308">
      <path
         d="m 593.28906,449.19141 h 51.75391 v 51.7539 h -51.75391 z m 0,0"
         clip-rule="nonzero"
         id="path34" />
    </clipPath>
    <clipPath
       id="41e2ad9d69">
      <path
         d="m 619.16406,449.19141 c -14.28906,0 -25.875,11.58593 -25.875,25.8789 0,14.28906 11.58594,25.875 25.875,25.875 14.29297,0 25.87891,-11.58594 25.87891,-25.875 0,-14.29297 -11.58594,-25.8789 -25.87891,-25.8789 z m 0,0"
         clip-rule="nonzero"
         id="path37" />
    </clipPath>
    <clipPath
       id="f8c6697fc4">
      <path
         d="m 593.28906,228.28516 h 51.75391 v 51.75781 h -51.75391 z m 0,0"
         clip-rule="nonzero"
         id="path40" />
    </clipPath>
    <clipPath
       id="e8d048edf6">
      <path
         d="m 619.16406,228.28516 c -14.28906,0 -25.875,11.58593 -25.875,25.8789 0,14.29297 11.58594,25.87891 25.875,25.87891 14.29297,0 25.87891,-11.58594 25.87891,-25.87891 0,-14.29297 -11.58594,-25.8789 -25.87891,-25.8789 z m 0,0"
         clip-rule="nonzero"
         id="path43" />
    </clipPath>
    <clipPath
       id="f7f032e4af">
      <path
         d="m 771.79297,449.19141 h 51.7539 v 51.7539 h -51.7539 z m 0,0"
         clip-rule="nonzero"
         id="path46" />
    </clipPath>
    <clipPath
       id="e07dddeef6">
      <path
         d="m 797.67187,449.19141 c -14.29296,0 -25.8789,11.58593 -25.8789,25.8789 0,14.28906 11.58594,25.875 25.8789,25.875 14.28907,0 25.875,-11.58594 25.875,-25.875 0,-14.29297 -11.58593,-25.8789 -25.875,-25.8789 z m 0,0"
         clip-rule="nonzero"
         id="path49" />
    </clipPath>
    <clipPath
       id="b56d854a8b">
      <path
         d="m 593.28906,526.42187 h 51.75391 v 51.75391 h -51.75391 z m 0,0"
         clip-rule="nonzero"
         id="path52" />
    </clipPath>
    <clipPath
       id="12fb2102ff">
      <path
         d="m 619.16406,526.42187 c -14.28906,0 -25.875,11.58594 -25.875,25.87891 0,14.28906 11.58594,25.875 25.875,25.875 14.29297,0 25.87891,-11.58594 25.87891,-25.875 0,-14.29297 -11.58594,-25.87891 -25.87891,-25.87891 z m 0,0"
         clip-rule="nonzero"
         id="path55" />
    </clipPath>
    <clipPath
       id="b0429a2f47">
      <path
         d="m 683.36719,526.42187 h 51.7539 v 51.75391 h -51.7539 z m 0,0"
         clip-rule="nonzero"
         id="path58" />
    </clipPath>
    <clipPath
       id="af6c322b7f">
      <path
         d="m 709.24219,526.42187 c -14.28907,0 -25.875,11.58594 -25.875,25.87891 0,14.28906 11.58593,25.875 25.875,25.875 14.29297,0 25.8789,-11.58594 25.8789,-25.875 0,-14.29297 -11.58593,-25.87891 -25.8789,-25.87891 z m 0,0"
         clip-rule="nonzero"
         id="path61" />
    </clipPath>
    <clipPath
       id="afc8c50c63">
      <path
         d="m 773.92187,305.58594 h 51.75782 v 51.75781 h -51.75782 z m 0,0"
         clip-rule="nonzero"
         id="path64" />
    </clipPath>
    <clipPath
       id="89536eb45c">
      <path
         d="m 799.80078,305.58594 c -14.29297,0 -25.87891,11.58593 -25.87891,25.8789 0,14.29297 11.58594,25.87891 25.87891,25.87891 14.29297,0 25.87891,-11.58594 25.87891,-25.87891 0,-14.29297 -11.58594,-25.8789 -25.87891,-25.8789 z m 0,0"
         clip-rule="nonzero"
         id="path67" />
    </clipPath>
    <clipPath
       id="65d69a996f">
      <path
         d="m 862.98828,526.42187 h 51.75781 v 51.75391 h -51.75781 z m 0,0"
         clip-rule="nonzero"
         id="path70" />
    </clipPath>
    <clipPath
       id="1b6ab27d1e">
      <path
         d="m 888.86719,526.42187 c -14.29297,0 -25.87891,11.58594 -25.87891,25.87891 0,14.28906 11.58594,25.875 25.87891,25.875 14.29297,0 25.8789,-11.58594 25.8789,-25.875 0,-14.29297 -11.58593,-25.87891 -25.8789,-25.87891 z m 0,0"
         clip-rule="nonzero"
         id="path73" />
    </clipPath>
    <clipPath
       id="2c30fc2112">
      <path
         d="m 995.64453,334.21875 h 31.26567 v 43.61328 h -31.26567 z m 0,0"
         clip-rule="nonzero"
         id="path76" />
    </clipPath>
    <clipPath
       id="4b67501f1d">
      <path
         d="m 1058.1719,203.38672 h 31.2656 v 174.44531 h -31.2656 z m 0,0"
         clip-rule="nonzero"
         id="path79" />
    </clipPath>
    <clipPath
       id="b65d7c963e">
      <path
         d="m 1120.6992,290.60937 h 31.2656 v 87.22266 h -31.2656 z m 0,0"
         clip-rule="nonzero"
         id="path82" />
    </clipPath>
    <clipPath
       id="fa0c314d8c">
      <path
         d="m 1183.2266,334.21875 h 31.2656 v 43.61328 h -31.2656 z m 0,0"
         clip-rule="nonzero"
         id="path85" />
    </clipPath>
  </defs>
  <path
     stroke-linecap="butt"
     fill="none"
     stroke-linejoin="miter"
     d="M 263.34808,499.75389 H 1254.6255"
     stroke="#000000"
     stroke-width="4.5"
     stroke-opacity="1"
     stroke-miterlimit="4"
     id="path94" />
  <path
     stroke-linecap="round"
     fill="none"
     stroke-linejoin="round"
     d="m 1245.6255,493.00389 9,6.75 -9,6.75"
     stroke="#000000"
     stroke-width="4.5"
     stroke-opacity="1"
     stroke-miterlimit="4"
     id="path96" />
  <g
     clip-path="url(#3dc0dd62ca)"
     id="g102"
     transform="translate(-1.8355185,-105.23439)">
    <g
       clip-path="url(#c9453af891)"
       id="g100">
      <path
         fill="#5271ff"
         d="m 326.32031,228.28516 h 51.75391 v 51.75781 h -51.75391 z m 0,0"
         fill-opacity="1"
         fill-rule="nonzero"
         id="path98" />
    </g>
  </g>
  <g
     clip-path="url(#d687d161ef)"
     id="g108"
     transform="translate(-1.8355185,-105.23439)">
    <g
       clip-path="url(#d0b7c4378f)"
       id="g106">
      <path
         fill="#ffde59"
         d="m 503.39062,228.28516 h 51.75391 v 51.75781 h -51.75391 z m 0,0"
         fill-opacity="1"
         fill-rule="nonzero"
         id="path104" />
    </g>
  </g>
  <g
     clip-path="url(#d6caae4450)"
     id="g114"
     transform="translate(-1.8355185,-105.23439)">
    <g
       clip-path="url(#f48b71520e)"
       id="g112">
      <path
         fill="#5271ff"
         d="m 326.15234,305.58594 h 51.75391 v 51.75781 h -51.75391 z m 0,0"
         fill-opacity="1"
         fill-rule="nonzero"
         id="path110" />
    </g>
  </g>
  <g
     clip-path="url(#21beb6fe7b)"
     id="g120"
     transform="translate(-1.8355185,-105.23439)">
    <g
       clip-path="url(#5cb869622d)"
       id="g118">
      <path
         fill="#ffde59"
         d="M 593.11719,305.58594 H 644.875 v 51.75781 h -51.75781 z m 0,0"
         fill-opacity="1"
         fill-rule="nonzero"
         id="path116" />
    </g>
  </g>
  <g
     clip-path="url(#506cf7e093)"
     id="g126"
     transform="translate(-1.8355185,-105.23439)">
    <g
       clip-path="url(#874f7923a1)"
       id="g124">
      <path
         fill="#5271ff"
         d="m 414.44531,449.19141 h 51.75391 v 51.7539 h -51.75391 z m 0,0"
         fill-opacity="1"
         fill-rule="nonzero"
         id="path122" />
    </g>
  </g>
  <path
     stroke-linecap="butt"
     fill="none"
     stroke-linejoin="miter"
     d="M 376.2387,148.92967 H 499.30511"
     stroke="#000000"
     stroke-width="4.5"
     stroke-opacity="1"
     stroke-miterlimit="4"
     id="path128" />
  <path
     stroke-linecap="round"
     fill="none"
     stroke-linejoin="round"
     d="m 490.30511,142.17967 9,6.75 -9,6.75"
     stroke="#000000"
     stroke-width="4.5"
     stroke-opacity="1"
     stroke-miterlimit="4"
     id="path130" />
  <path
     stroke-linecap="butt"
     fill="none"
     stroke-linejoin="miter"
     d="M 376.07073,226.23046 H 589.03168"
     stroke="#000000"
     stroke-width="4.5"
     stroke-opacity="1"
     stroke-miterlimit="4"
     id="path132" />
  <path
     stroke-linecap="round"
     fill="none"
     stroke-linejoin="round"
     d="m 580.03168,219.48046 9,6.75 -9,6.75"
     stroke="#000000"
     stroke-width="4.5"
     stroke-opacity="1"
     stroke-miterlimit="4"
     id="path134" />
  <g
     clip-path="url(#5fbe1d8308)"
     id="g140"
     transform="translate(-1.8355185,-105.23439)">
    <g
       clip-path="url(#41e2ad9d69)"
       id="g138">
      <path
         fill="#ffde59"
         d="m 593.28906,449.19141 h 51.75391 v 51.7539 h -51.75391 z m 0,0"
         fill-opacity="1"
         fill-rule="nonzero"
         id="path136" />
    </g>
  </g>
  <g
     clip-path="url(#f8c6697fc4)"
     id="g146"
     transform="translate(-1.8355185,-105.23439)">
    <g
       clip-path="url(#e8d048edf6)"
       id="g144">
      <path
         fill="#ffde59"
         d="m 593.28906,228.28516 h 51.75391 v 51.75781 h -51.75391 z m 0,0"
         fill-opacity="1"
         fill-rule="nonzero"
         id="path142" />
    </g>
  </g>
  <path
     stroke-linecap="butt"
     fill="none"
     stroke-linejoin="miter"
     d="m 350.3637,123.05077 v -18 c 0,-9.941407 8.05859,-18.000007 18,-18.000007 h 232.08986 c 9.3203,0 16.875,7.55469 16.875,16.875007 v 16.875"
     stroke="#000000"
     stroke-width="4.5"
     stroke-opacity="1"
     stroke-miterlimit="4"
     id="path148" />
  <path
     stroke-linecap="round"
     fill="none"
     stroke-linejoin="round"
     d="m 624.07856,111.80077 -6.75,9 -6.75,-9"
     stroke="#000000"
     stroke-width="4.5"
     stroke-opacity="1"
     stroke-miterlimit="4"
     id="path150" />
  <path
     stroke-linecap="butt"
     fill="none"
     stroke-linejoin="miter"
     d="M 464.3637,369.83592 H 589.20356"
     stroke="#000000"
     stroke-width="4.5"
     stroke-opacity="1"
     stroke-miterlimit="4"
     id="path152" />
  <path
     stroke-linecap="round"
     fill="none"
     stroke-linejoin="round"
     d="m 580.20356,363.08592 9,6.75 -9,6.75"
     stroke="#000000"
     stroke-width="4.5"
     stroke-opacity="1"
     stroke-miterlimit="4"
     id="path154" />
  <g
     clip-path="url(#f7f032e4af)"
     id="g160"
     transform="translate(-1.8355185,-105.23439)">
    <g
       clip-path="url(#e07dddeef6)"
       id="g158">
      <path
         fill="#ffde59"
         d="m 771.79297,449.19141 h 51.7539 v 51.7539 h -51.7539 z m 0,0"
         fill-opacity="1"
         fill-rule="nonzero"
         id="path156" />
    </g>
  </g>
  <path
     stroke-linecap="butt"
     fill="none"
     stroke-linejoin="miter"
     d="m 438.48479,343.95702 v -16.96485 c 0,-9.37109 7.59766,-16.96875 16.96876,-16.96875 h 324.53907 c 8.75001,0 15.84375,7.09375 15.84375,15.84375 v 15.83985"
     stroke="#000000"
     stroke-width="4.5"
     stroke-opacity="1"
     stroke-miterlimit="4"
     id="path162" />
  <path
     stroke-linecap="round"
     fill="none"
     stroke-linejoin="round"
     d="m 802.58637,332.70702 -6.75,9 -6.75,-9"
     stroke="#000000"
     stroke-width="4.5"
     stroke-opacity="1"
     stroke-miterlimit="4"
     id="path164" />
  <g
     clip-path="url(#b56d854a8b)"
     id="g170"
     transform="translate(-1.8355185,-105.23439)">
    <g
       clip-path="url(#12fb2102ff)"
       id="g168">
      <path
         fill="#5271ff"
         d="m 593.28906,526.42187 h 51.75391 v 51.75391 h -51.75391 z m 0,0"
         fill-opacity="1"
         fill-rule="nonzero"
         id="path166" />
    </g>
  </g>
  <g
     clip-path="url(#b0429a2f47)"
     id="g176"
     transform="translate(-1.8355185,-105.23439)">
    <g
       clip-path="url(#af6c322b7f)"
       id="g174">
      <path
         fill="#ffde59"
         d="m 683.36719,526.42187 h 51.7539 v 51.75391 h -51.7539 z m 0,0"
         fill-opacity="1"
         fill-rule="nonzero"
         id="path172" />
    </g>
  </g>
  <path
     stroke-linecap="butt"
     fill="none"
     stroke-linejoin="miter"
     d="m 643.20745,447.06639 h 36.07422"
     stroke="#000000"
     stroke-width="4.5"
     stroke-opacity="1"
     stroke-miterlimit="4"
     id="path178" />
  <path
     stroke-linecap="round"
     fill="none"
     stroke-linejoin="round"
     d="m 670.28167,440.31639 9,6.75 -9,6.75"
     stroke="#000000"
     stroke-width="4.5"
     stroke-opacity="1"
     stroke-miterlimit="4"
     id="path180" />
  <g
     clip-path="url(#afc8c50c63)"
     id="g186"
     transform="translate(-1.8355185,-105.23439)">
    <g
       clip-path="url(#89536eb45c)"
       id="g184">
      <path
         fill="#ff914d"
         d="m 773.92187,305.58594 h 51.75782 v 51.75781 h -51.75782 z m 0,0"
         fill-opacity="1"
         fill-rule="nonzero"
         id="path182" />
    </g>
  </g>
  <path
     stroke-linecap="butt"
     fill="none"
     stroke-linejoin="miter"
     d="M 643.03948,226.23046 H 769.83636"
     stroke="#000000"
     stroke-width="4.5"
     stroke-opacity="1"
     stroke-miterlimit="4"
     id="path188" />
  <path
     stroke-linecap="round"
     fill="none"
     stroke-linejoin="round"
     d="m 760.83636,219.48046 9,6.75 -9,6.75"
     stroke="#000000"
     stroke-width="4.5"
     stroke-opacity="1"
     stroke-miterlimit="4"
     id="path190" />
  <g
     clip-path="url(#65d69a996f)"
     id="g196"
     transform="translate(-1.8355185,-105.23439)">
    <g
       clip-path="url(#1b6ab27d1e)"
       id="g194">
      <path
         fill="#ff914d"
         d="m 862.98828,526.42187 h 51.75781 v 51.75391 h -51.75781 z m 0,0"
         fill-opacity="1"
         fill-rule="nonzero"
         id="path192" />
    </g>
  </g>
  <path
     stroke-linecap="butt"
     fill="none"
     stroke-linejoin="miter"
     d="m 733.28557,447.06639 h 125.6172"
     stroke="#000000"
     stroke-width="4.5"
     stroke-opacity="1"
     stroke-miterlimit="4"
     id="path198" />
  <path
     stroke-linecap="round"
     fill="none"
     stroke-linejoin="round"
     d="m 849.90277,440.31639 9,6.75 -9,6.75"
     stroke="#000000"
     stroke-width="4.5"
     stroke-opacity="1"
     stroke-miterlimit="4"
     id="path200" />
  <g
     fill="#000000"
     fill-opacity="1"
     id="g208"
     transform="translate(-1.8355185,-105.23439)">
    <g
       transform="translate(181.2883,617.36401)"
       id="g206">
      <g
         id="g204">
        <path
           d="m 11.515625,-24.265625 c 2.457031,0 4.566406,0.445313 6.328125,1.328125 1.769531,0.875 3.132812,2.214844 4.09375,4.015625 0.957031,1.804687 1.4375,4.0625 1.4375,6.78125 0,2.730469 -0.480469,4.996094 -1.4375,6.796875 -0.960938,1.804688 -2.324219,3.148438 -4.09375,4.03125 C 16.082031,-0.4375 13.972656,0 11.515625,0 h -7.84375 v -24.265625 z m -0.28125,21.84375 c 2.03125,0 3.707031,-0.3125 5.03125,-0.9375 1.332031,-0.632813 2.34375,-1.664063 3.03125,-3.09375 0.6875,-1.425781 1.03125,-3.320313 1.03125,-5.6875 0,-2.363281 -0.34375,-4.253906 -1.03125,-5.671875 -0.6875,-1.425781 -1.699219,-2.453125 -3.03125,-3.078125 -1.324219,-0.632813 -3,-0.953125 -5.03125,-0.953125 H 6.53125 v 19.421875 z m 0,0"
           id="path202" />
      </g>
    </g>
  </g>
  <g
     fill="#000000"
     fill-opacity="1"
     id="g216"
     transform="translate(-1.8355185,-105.23439)">
    <g
       transform="translate(207.08416,617.36401)"
       id="g214">
      <g
         id="g212">
        <path
           d="M 7.546875,0.34375 C 5.742188,0.34375 4.335938,-0.125 3.328125,-1.0625 2.316406,-2 1.8125,-3.34375 1.8125,-5.09375 c 0,-1.082031 0.222656,-2 0.671875,-2.75 0.445313,-0.75 1.140625,-1.359375 2.078125,-1.828125 0.945312,-0.46875 2.175781,-0.832031 3.6875,-1.09375 1.332031,-0.21875 2.34375,-0.460937 3.03125,-0.734375 0.6875,-0.28125 1.148438,-0.59375 1.390625,-0.9375 0.238281,-0.34375 0.359375,-0.773438 0.359375,-1.296875 0,-0.820313 -0.289062,-1.453125 -0.859375,-1.890625 -0.5625,-0.445312 -1.476563,-0.671875 -2.734375,-0.671875 -1.1875,0 -2.210938,0.230469 -3.0625,0.6875 -0.84375,0.460937 -1.621094,1.140625 -2.328125,2.046875 H 3.71875 l -1.328125,-1.875 c 0.769531,-0.988281 1.753906,-1.769531 2.953125,-2.34375 1.195312,-0.582031 2.5625,-0.875 4.09375,-0.875 2.15625,0 3.742188,0.476562 4.765625,1.421875 1.019531,0.9375 1.53125,2.246094 1.53125,3.921875 v 9.703125 c 0,1.023437 0.429687,1.53125 1.296875,1.53125 0.289062,0 0.566406,-0.046875 0.828125,-0.140625 l 0.234375,0.0625 0.3125,1.875 c -0.199219,0.136719 -0.460938,0.2421875 -0.78125,0.3125 -0.324219,0.070312 -0.65625,0.109375 -1,0.109375 -1.011719,0 -1.777344,-0.2226562 -2.296875,-0.671875 -0.511719,-0.445312 -0.839844,-1.097656 -0.984375,-1.953125 L 13,-2.53125 c -0.523438,0.96875 -1.226562,1.695312 -2.109375,2.171875 -0.886719,0.46875 -2,0.703125 -3.34375,0.703125 z M 8.15625,-1.8125 c 1.007812,0 1.890625,-0.234375 2.640625,-0.703125 0.75,-0.46875 1.320313,-1.128906 1.71875,-1.984375 0.394531,-0.851562 0.59375,-1.835938 0.59375,-2.953125 V -9.78125 l -0.3125,-0.0625 c -0.40625,0.292969 -0.90625,0.539062 -1.5,0.734375 C 10.710938,-8.921875 9.894531,-8.75 8.84375,-8.59375 7.78125,-8.457031 6.9375,-8.238281 6.3125,-7.9375 c -0.625,0.304688 -1.074219,0.683594 -1.34375,1.140625 -0.261719,0.460937 -0.390625,1.027344 -0.390625,1.703125 0,1.074219 0.3125,1.890625 0.9375,2.453125 C 6.148438,-2.085938 7.03125,-1.8125 8.15625,-1.8125 Z m 0,0"
           id="path210" />
      </g>
    </g>
  </g>
  <g
     fill="#000000"
     fill-opacity="1"
     id="g224"
     transform="translate(-1.8355185,-105.23439)">
    <g
       transform="translate(226.02437,617.36401)"
       id="g222">
      <g
         id="g220">
        <path
           d="m 3.671875,7.765625 c -0.625,0 -1.210937,-0.054687 -1.75,-0.15625 -0.53125,-0.105469 -0.992187,-0.25 -1.375,-0.4375 l 0.5,-2.140625 L 1.34375,4.9375 c 0.269531,0.125 0.601562,0.234375 1,0.328125 0.394531,0.09375 0.800781,0.140625 1.21875,0.140625 0.75,0 1.363281,-0.101562 1.84375,-0.296875 C 5.894531,4.910156 6.3125,4.582031 6.65625,4.125 7.007812,3.664062 7.335938,3.03125 7.640625,2.21875 L 8.28125,0.4375 0.9375,-18.3125 h 2.921875 l 5.75,14.9375 h 0.3125 L 15.5,-18.3125 h 2.78125 L 10.09375,2.875 C 9.625,4.039062 9.101562,4.984375 8.53125,5.703125 c -0.574219,0.71875 -1.257812,1.238281 -2.046875,1.5625 -0.78125,0.332031 -1.71875,0.5 -2.8125,0.5 z m 0,0"
           id="path218" />
      </g>
    </g>
  </g>
  <g
     fill="#000000"
     fill-opacity="1"
     id="g232"
     transform="translate(-1.8355185,-105.23439)">
    <g
       transform="translate(344.43421,656.31402)"
       id="g230">
      <g
         id="g228">
        <path
           d="M 1.734375,0 V -2.359375 H 8.34375 v -18.5625 l -0.375,-0.09375 c -1.074219,0.53125 -2.015625,0.9375 -2.828125,1.21875 -0.804687,0.28125 -1.835937,0.558594 -3.09375,0.828125 v -2.625 c 1.25,-0.269531 2.484375,-0.628906 3.703125,-1.078125 1.226562,-0.457031 2.335938,-0.988281 3.328125,-1.59375 h 2.0625 v 21.90625 H 17.0625 V 0 Z m 0,0"
           id="path226" />
      </g>
    </g>
  </g>
  <g
     fill="#000000"
     fill-opacity="1"
     id="g240"
     transform="translate(-1.8355185,-105.23439)">
    <g
       transform="translate(432.27238,656.31402)"
       id="g238">
      <g
         id="g236">
        <path
           d="m 1.46875,-1.109375 c 0,-1.34375 0.144531,-2.421875 0.4375,-3.234375 0.289062,-0.820312 0.789062,-1.585938 1.5,-2.296875 0.707031,-0.707031 1.835938,-1.625 3.390625,-2.75 L 9.46875,-11.34375 c 0.976562,-0.71875 1.773438,-1.378906 2.390625,-1.984375 0.625,-0.613281 1.113281,-1.273437 1.46875,-1.984375 0.363281,-0.71875 0.546875,-1.519531 0.546875,-2.40625 0,-1.4375 -0.382812,-2.519531 -1.140625,-3.25 -0.761719,-0.726562 -1.960937,-1.09375 -3.59375,-1.09375 -1.28125,0 -2.421875,0.304688 -3.421875,0.90625 -0.992188,0.59375 -1.78125,1.4375 -2.375,2.53125 L 2.953125,-18.5625 1.25,-20.359375 c 0.8125,-1.320313 1.882812,-2.363281 3.21875,-3.125 1.332031,-0.757813 2.890625,-1.140625 4.671875,-1.140625 1.726563,0 3.160156,0.296875 4.296875,0.890625 1.144531,0.585937 1.988281,1.398437 2.53125,2.4375 0.539062,1.03125 0.8125,2.226563 0.8125,3.578125 0,1.085938 -0.230469,2.101562 -0.6875,3.046875 -0.449219,0.9375 -1.089844,1.824219 -1.921875,2.65625 -0.824219,0.824219 -1.859375,1.699219 -3.109375,2.625 l -2.71875,1.96875 c -1,0.742187 -1.773438,1.371094 -2.3125,1.890625 C 5.488281,-5.007812 5.09375,-4.5 4.84375,-4 c -0.25,0.492188 -0.375,1.039062 -0.375,1.640625 h 12.3125 V 0 H 1.46875 Z m 0,0"
           id="path234" />
      </g>
    </g>
  </g>
  <g
     fill="#000000"
     fill-opacity="1"
     id="g248"
     transform="translate(-1.8355185,-105.23439)">
    <g
       transform="translate(520.68648,656.31402)"
       id="g246">
      <g
         id="g244">
        <path
           d="M 9.609375,0.34375 C 7.253906,0.34375 5.382812,-0.1875 4,-1.25 2.613281,-2.3125 1.71875,-3.78125 1.3125,-5.65625 l 2.125,-0.96875 0.375,0.0625 c 0.425781,1.449219 1.078125,2.539062 1.953125,3.265625 0.882813,0.71875 2.164063,1.078125 3.84375,1.078125 1.71875,0 3.023437,-0.390625 3.921875,-1.171875 C 14.425781,-4.179688 14.875,-5.34375 14.875,-6.875 c 0,-1.488281 -0.460938,-2.625 -1.375,-3.40625 -0.90625,-0.789062 -2.339844,-1.1875 -4.296875,-1.1875 H 6.5625 v -2.359375 h 2.359375 c 1.519531,0 2.726563,-0.378906 3.625,-1.140625 0.90625,-0.757812 1.359375,-1.828125 1.359375,-3.203125 0,-1.320313 -0.390625,-2.3125 -1.171875,-2.96875 C 11.960938,-21.796875 10.875,-22.125 9.46875,-22.125 c -2.449219,0 -4.195312,0.976562 -5.234375,2.921875 l -0.375,0.0625 -1.59375,-1.75 c 0.644531,-1.113281 1.582031,-2.015625 2.8125,-2.703125 1.226563,-0.6875 2.691406,-1.03125 4.390625,-1.03125 1.539062,0 2.859375,0.246094 3.953125,0.734375 1.09375,0.480469 1.921875,1.171875 2.484375,2.078125 0.5625,0.90625 0.84375,1.992188 0.84375,3.25 0,1.199219 -0.351562,2.25 -1.046875,3.15625 -0.6875,0.898438 -1.601563,1.605469 -2.734375,2.125 v 0.34375 c 1.601562,0.386719 2.804688,1.109375 3.609375,2.171875 0.8125,1.054687 1.21875,2.351563 1.21875,3.890625 0,2.304688 -0.6875,4.085938 -2.0625,5.34375 -1.367187,1.25 -3.40625,1.875 -6.125,1.875 z m 0,0"
           id="path242" />
      </g>
    </g>
  </g>
  <g
     fill="#000000"
     fill-opacity="1"
     id="g256"
     transform="translate(-1.8355185,-105.23439)">
    <g
       transform="translate(610.16299,656.31402)"
       id="g254">
      <g
         id="g252">
        <path
           d="m 15.1875,0 h -2.703125 v -5.796875 h -11.375 v -2.28125 l 10.71875,-16.1875 H 15.1875 v 16.1875 h 4.203125 v 2.28125 H 15.1875 Z M 4.46875,-8.4375 4.609375,-8.078125 h 7.875 v -12.25 l -0.375,-0.0625 z m 0,0"
           id="path250" />
      </g>
    </g>
  </g>
  <g
     fill="#000000"
     fill-opacity="1"
     id="g264"
     transform="translate(-1.8355185,-105.23439)">
    <g
       transform="translate(700.48334,656.31402)"
       id="g262">
      <g
         id="g260">
        <path
           d="m 10,0.34375 c -2.273438,0 -4.085938,-0.5 -5.4375,-1.5 C 3.207031,-2.164062 2.320312,-3.597656 1.90625,-5.453125 l 2.109375,-0.953125 0.390625,0.0625 c 0.269531,0.9375 0.628906,1.710938 1.078125,2.3125 0.445313,0.59375 1.035156,1.046875 1.765625,1.359375 0.726562,0.304687 1.644531,0.453125 2.75,0.453125 1.632812,0 2.90625,-0.488281 3.8125,-1.46875 0.914062,-0.976562 1.375,-2.40625 1.375,-4.28125 0,-1.90625 -0.449219,-3.351562 -1.34375,-4.34375 -0.898438,-0.988281 -2.136719,-1.484375 -3.71875,-1.484375 -1.210938,0 -2.1875,0.246094 -2.9375,0.734375 -0.75,0.492188 -1.414062,1.234375 -1.984375,2.234375 L 2.90625,-11.03125 3.375,-24.265625 h 13.59375 v 2.421875 H 5.859375 l -0.28125,8.046875 0.34375,0.0625 c 0.582031,-0.832031 1.285156,-1.457031 2.109375,-1.875 0.820312,-0.414063 1.804688,-0.625 2.953125,-0.625 1.457031,0 2.722656,0.324219 3.796875,0.96875 1.082031,0.648437 1.914062,1.589844 2.5,2.828125 0.59375,1.242188 0.890625,2.730469 0.890625,4.46875 0,1.730469 -0.339844,3.21875 -1.015625,4.46875 -0.679688,1.25 -1.636719,2.203125 -2.875,2.859375 C 13.050781,0.015625 11.625,0.34375 10,0.34375 Z m 0,0"
           id="path258" />
      </g>
    </g>
  </g>
  <g
     fill="#000000"
     fill-opacity="1"
     id="g272"
     transform="translate(-1.8355185,-105.23439)">
    <g
       transform="translate(790.31927,656.31402)"
       id="g270">
      <g
         id="g268">
        <path
           d="m 11.59375,0.34375 c -1.71875,0 -3.261719,-0.4101562 -4.625,-1.234375 -1.355469,-0.820313 -2.445312,-2.160156 -3.265625,-4.015625 -0.8125,-1.863281 -1.21875,-4.273438 -1.21875,-7.234375 0,-2.863281 0.40625,-5.226563 1.21875,-7.09375 0.820313,-1.863281 1.929687,-3.226563 3.328125,-4.09375 1.40625,-0.863281 3.015625,-1.296875 4.828125,-1.296875 3.101563,0 5.394531,0.949219 6.875,2.84375 l -1.40625,1.875 h -0.40625 c -1.199219,-1.4375 -2.886719,-2.15625 -5.0625,-2.15625 -2.105469,0 -3.714844,0.796875 -4.828125,2.390625 C 5.925781,-18.085938 5.375,-15.550781 5.375,-12.0625 l 0.359375,0.09375 C 6.390625,-13.34375 7.25,-14.375 8.3125,-15.0625 c 1.0625,-0.6875 2.367188,-1.03125 3.921875,-1.03125 1.539063,0 2.867187,0.328125 3.984375,0.984375 1.125,0.65625 1.984375,1.605469 2.578125,2.84375 0.601563,1.230469 0.90625,2.683594 0.90625,4.359375 0,1.6875 -0.335937,3.152344 -1,4.390625 -0.65625,1.242187 -1.601563,2.195313 -2.828125,2.859375 -1.21875,0.6640625 -2.648438,1 -4.28125,1 z m 0,-2.5625 c 1.601562,0 2.859375,-0.484375 3.765625,-1.453125 0.90625,-0.976563 1.359375,-2.390625 1.359375,-4.234375 0,-1.84375 -0.453125,-3.25 -1.359375,-4.21875 -0.90625,-0.976562 -2.164063,-1.46875 -3.765625,-1.46875 -1.105469,0 -2.0625,0.226562 -2.875,0.671875 -0.804688,0.449219 -1.421875,1.101563 -1.859375,1.953125 -0.4375,0.84375 -0.65625,1.867188 -0.65625,3.0625 0,1.1875 0.21875,2.210938 0.65625,3.0625 0.4375,0.855469 1.054687,1.507812 1.859375,1.953125 0.8125,0.449219 1.769531,0.671875 2.875,0.671875 z m 0,0"
           id="path266" />
      </g>
    </g>
  </g>
  <g
     fill="#000000"
     fill-opacity="1"
     id="g280"
     transform="translate(-1.8355185,-105.23439)">
    <g
       transform="translate(881.93646,656.31402)"
       id="g278">
      <g
         id="g276">
        <path
           d="M 6.59375,0 H 3.8125 l 9.015625,-21.5 -0.09375,-0.34375 H 0.890625 v -2.421875 h 14.8125 v 2.609375 z m 0,0"
           id="path274" />
      </g>
    </g>
  </g>
  <g
     fill="#000000"
     fill-opacity="1"
     id="g288"
     transform="translate(-1.8355185,-105.23439)">
    <g
       transform="translate(968.45211,656.31402)"
       id="g286">
      <g
         id="g284">
        <path
           d="M 10.265625,0.34375 C 8.492188,0.34375 6.976562,0.0625 5.71875,-0.5 4.457031,-1.070312 3.5,-1.882812 2.84375,-2.9375 2.195312,-4 1.875,-5.25 1.875,-6.6875 c 0,-1.539062 0.378906,-2.828125 1.140625,-3.859375 0.769531,-1.03125 1.898437,-1.835937 3.390625,-2.421875 v -0.34375 c -1.054688,-0.632812 -1.867188,-1.367188 -2.4375,-2.203125 -0.5625,-0.832031 -0.84375,-1.820313 -0.84375,-2.96875 0,-1.238281 0.289062,-2.316406 0.875,-3.234375 0.582031,-0.925781 1.414062,-1.640625 2.5,-2.140625 1.082031,-0.507813 2.335938,-0.765625 3.765625,-0.765625 1.425781,0 2.679687,0.257812 3.765625,0.765625 1.082031,0.5 1.914062,1.214844 2.5,2.140625 0.59375,0.917969 0.890625,1.996094 0.890625,3.234375 0,1.148437 -0.292969,2.136719 -0.875,2.96875 -0.574219,0.835937 -1.386719,1.570313 -2.4375,2.203125 v 0.34375 c 1.507813,0.585938 2.644531,1.390625 3.40625,2.421875 0.757813,1.03125 1.140625,2.320313 1.140625,3.859375 0,1.449219 -0.328125,2.699219 -0.984375,3.75 -0.648437,1.054688 -1.601563,1.867188 -2.859375,2.4375 -1.261719,0.5625 -2.777344,0.84375 -4.546875,0.84375 z m 0,-14.421875 c 0.863281,0 1.625,-0.160156 2.28125,-0.484375 0.65625,-0.332031 1.164063,-0.804688 1.53125,-1.421875 0.375,-0.613281 0.5625,-1.332031 0.5625,-2.15625 0,-0.84375 -0.1875,-1.570313 -0.5625,-2.1875 -0.367187,-0.625 -0.882813,-1.101563 -1.546875,-1.4375 -0.667969,-0.332031 -1.421875,-0.5 -2.265625,-0.5 -1.34375,0 -2.414063,0.371094 -3.203125,1.109375 -0.78125,0.730469 -1.171875,1.734375 -1.171875,3.015625 0,1.261719 0.390625,2.257813 1.171875,2.984375 0.789062,0.71875 1.859375,1.078125 3.203125,1.078125 z m 0,11.921875 c 1.75,0 3.085937,-0.414062 4.015625,-1.25 0.925781,-0.832031 1.390625,-1.988281 1.390625,-3.46875 0,-1.46875 -0.464844,-2.617188 -1.390625,-3.453125 -0.929688,-0.84375 -2.265625,-1.265625 -4.015625,-1.265625 -1.75,0 -3.09375,0.421875 -4.03125,1.265625 C 5.304688,-9.492188 4.84375,-8.34375 4.84375,-6.875 c 0,1.480469 0.460938,2.636719 1.390625,3.46875 0.9375,0.835938 2.28125,1.25 4.03125,1.25 z m 0,0"
           id="path282" />
      </g>
    </g>
  </g>
  <g
     fill="#000000"
     fill-opacity="1"
     id="g296"
     transform="translate(-1.8355185,-105.23439)">
    <g
       transform="translate(1058.7411,656.31402)"
       id="g294">
      <g
         id="g292">
        <path
           d="m 10.265625,0.34375 c -2.105469,0 -3.8125,-0.476562 -5.125,-1.4375 -1.3125,-0.957031 -2.148437,-2.269531 -2.5,-3.9375 L 4.75,-6 5.125,-5.921875 c 0.394531,1.230469 0.992188,2.15625 1.796875,2.78125 0.800781,0.617187 1.914063,0.921875 3.34375,0.921875 2.007813,0 3.546875,-0.835938 4.609375,-2.515625 1.0625,-1.6875 1.59375,-4.289063 1.59375,-7.8125 L 16.125,-12.65625 c -0.679688,1.386719 -1.539062,2.421875 -2.578125,3.109375 -1.042969,0.679687 -2.355469,1.015625 -3.9375,1.015625 -1.511719,0 -2.828125,-0.328125 -3.953125,-0.984375 -1.125,-0.664063 -1.992188,-1.597656 -2.59375,-2.796875 -0.605469,-1.207031 -0.90625,-2.613281 -0.90625,-4.21875 0,-1.601562 0.332031,-3.015625 1,-4.234375 0.664062,-1.226563 1.609375,-2.175781 2.828125,-2.84375 1.21875,-0.675781 2.644531,-1.015625 4.28125,-1.015625 2.84375,0 5.066406,0.964844 6.671875,2.890625 1.613281,1.917969 2.421875,5.023437 2.421875,9.3125 0,2.90625 -0.386719,5.3125 -1.15625,7.21875 C 17.441406,-3.304688 16.382812,-1.90625 15.03125,-1 13.675781,-0.101562 12.085938,0.34375 10.265625,0.34375 Z m 0,-11.375 c 1.09375,0 2.039063,-0.210938 2.84375,-0.640625 0.8125,-0.425781 1.4375,-1.054687 1.875,-1.890625 0.4375,-0.832031 0.65625,-1.820312 0.65625,-2.96875 0,-1.15625 -0.21875,-2.144531 -0.65625,-2.96875 -0.4375,-0.832031 -1.0625,-1.46875 -1.875,-1.90625 -0.804687,-0.4375 -1.75,-0.65625 -2.84375,-0.65625 -1.605469,0 -2.867187,0.476562 -3.78125,1.421875 -0.90625,0.949219 -1.359375,2.320313 -1.359375,4.109375 0,1.792969 0.453125,3.15625 1.359375,4.09375 0.914063,0.9375 2.175781,1.40625 3.78125,1.40625 z m 0,0"
           id="path290" />
      </g>
    </g>
  </g>
  <g
     fill="#000000"
     fill-opacity="1"
     id="g304"
     transform="translate(-1.8355185,-105.23439)">
    <g
       transform="translate(1150.3427,656.31402)"
       id="g302">
      <g
         id="g300">
        <path
           d="M 1.734375,0 V -2.359375 H 8.34375 v -18.5625 l -0.375,-0.09375 c -1.074219,0.53125 -2.015625,0.9375 -2.828125,1.21875 -0.804687,0.28125 -1.835937,0.558594 -3.09375,0.828125 v -2.625 c 1.25,-0.269531 2.484375,-0.628906 3.703125,-1.078125 1.226562,-0.457031 2.335938,-0.988281 3.328125,-1.59375 h 2.0625 v 21.90625 H 17.0625 V 0 Z m 0,0"
           id="path298" />
      </g>
    </g>
  </g>
  <g
     fill="#000000"
     fill-opacity="1"
     id="g312"
     transform="translate(-1.8355185,-105.23439)">
    <g
       transform="translate(1168.4363,656.31402)"
       id="g310">
      <g
         id="g308">
        <path
           d="m 11.9375,0.34375 c -1.78125,0 -3.382812,-0.4257812 -4.796875,-1.28125 C 5.722656,-1.789062 4.59375,-3.148438 3.75,-5.015625 c -0.84375,-1.863281 -1.265625,-4.238281 -1.265625,-7.125 0,-2.875 0.421875,-5.242187 1.265625,-7.109375 0.84375,-1.863281 1.972656,-3.222656 3.390625,-4.078125 1.414063,-0.863281 3.015625,-1.296875 4.796875,-1.296875 1.78125,0 3.378906,0.433594 4.796875,1.296875 1.414063,0.855469 2.539063,2.214844 3.375,4.078125 0.832031,1.867188 1.25,4.234375 1.25,7.109375 0,2.886719 -0.417969,5.261719 -1.25,7.125 -0.835937,1.867187 -1.960937,3.226563 -3.375,4.078125 -1.417969,0.8554688 -3.015625,1.28125 -4.796875,1.28125 z m 0,-2.640625 c 2.113281,0 3.710938,-0.757813 4.796875,-2.28125 1.09375,-1.519531 1.640625,-4.039063 1.640625,-7.5625 0,-3.519531 -0.546875,-6.039063 -1.640625,-7.5625 -1.085937,-1.519531 -2.683594,-2.28125 -4.796875,-2.28125 -1.398438,0 -2.574219,0.324219 -3.53125,0.96875 -0.949219,0.636719 -1.671875,1.683594 -2.171875,3.140625 -0.5,1.449219 -0.75,3.359375 -0.75,5.734375 0,2.386719 0.25,4.304687 0.75,5.75 0.5,1.449219 1.222656,2.496094 2.171875,3.140625 0.957031,0.636719 2.132812,0.953125 3.53125,0.953125 z m 0,0"
           id="path306" />
      </g>
    </g>
  </g>
  <g
     fill="#000000"
     fill-opacity="1"
     id="g320"
     transform="translate(-1.8355185,-105.23439)">
    <g
       transform="translate(655.15749,538.79699)"
       id="g318">
      <g
         id="g316">
        <path
           d="M 1.734375,0 V -2.359375 H 8.34375 v -18.5625 l -0.375,-0.09375 c -1.074219,0.53125 -2.015625,0.9375 -2.828125,1.21875 -0.804687,0.28125 -1.835937,0.558594 -3.09375,0.828125 v -2.625 c 1.25,-0.269531 2.484375,-0.628906 3.703125,-1.078125 1.226562,-0.457031 2.335938,-0.988281 3.328125,-1.59375 h 2.0625 v 21.90625 H 17.0625 V 0 Z m 0,0"
           id="path314" />
      </g>
    </g>
  </g>
  <g
     fill="#000000"
     fill-opacity="1"
     id="g328"
     transform="translate(-1.8355185,-105.23439)">
    <g
       transform="translate(520.46604,458.94859)"
       id="g326">
      <g
         id="g324">
        <path
           d="m 1.46875,-1.109375 c 0,-1.34375 0.144531,-2.421875 0.4375,-3.234375 0.289062,-0.820312 0.789062,-1.585938 1.5,-2.296875 0.707031,-0.707031 1.835938,-1.625 3.390625,-2.75 L 9.46875,-11.34375 c 0.976562,-0.71875 1.773438,-1.378906 2.390625,-1.984375 0.625,-0.613281 1.113281,-1.273437 1.46875,-1.984375 0.363281,-0.71875 0.546875,-1.519531 0.546875,-2.40625 0,-1.4375 -0.382812,-2.519531 -1.140625,-3.25 -0.761719,-0.726562 -1.960937,-1.09375 -3.59375,-1.09375 -1.28125,0 -2.421875,0.304688 -3.421875,0.90625 -0.992188,0.59375 -1.78125,1.4375 -2.375,2.53125 L 2.953125,-18.5625 1.25,-20.359375 c 0.8125,-1.320313 1.882812,-2.363281 3.21875,-3.125 1.332031,-0.757813 2.890625,-1.140625 4.671875,-1.140625 1.726563,0 3.160156,0.296875 4.296875,0.890625 1.144531,0.585937 1.988281,1.398437 2.53125,2.4375 0.539062,1.03125 0.8125,2.226563 0.8125,3.578125 0,1.085938 -0.230469,2.101562 -0.6875,3.046875 -0.449219,0.9375 -1.089844,1.824219 -1.921875,2.65625 -0.824219,0.824219 -1.859375,1.699219 -3.109375,2.625 l -2.71875,1.96875 c -1,0.742187 -1.773438,1.371094 -2.3125,1.890625 C 5.488281,-5.007812 5.09375,-4.5 4.84375,-4 c -0.25,0.492188 -0.375,1.039062 -0.375,1.640625 h 12.3125 V 0 H 1.46875 Z m 0,0"
           id="path322" />
      </g>
    </g>
  </g>
  <g
     fill="#000000"
     fill-opacity="1"
     id="g336"
     transform="translate(-1.8355185,-105.23439)">
    <g
       transform="translate(475.64933,317.89155)"
       id="g334">
      <g
         id="g332">
        <path
           d="M 9.609375,0.34375 C 7.253906,0.34375 5.382812,-0.1875 4,-1.25 2.613281,-2.3125 1.71875,-3.78125 1.3125,-5.65625 l 2.125,-0.96875 0.375,0.0625 c 0.425781,1.449219 1.078125,2.539062 1.953125,3.265625 0.882813,0.71875 2.164063,1.078125 3.84375,1.078125 1.71875,0 3.023437,-0.390625 3.921875,-1.171875 C 14.425781,-4.179688 14.875,-5.34375 14.875,-6.875 c 0,-1.488281 -0.460938,-2.625 -1.375,-3.40625 -0.90625,-0.789062 -2.339844,-1.1875 -4.296875,-1.1875 H 6.5625 v -2.359375 h 2.359375 c 1.519531,0 2.726563,-0.378906 3.625,-1.140625 0.90625,-0.757812 1.359375,-1.828125 1.359375,-3.203125 0,-1.320313 -0.390625,-2.3125 -1.171875,-2.96875 C 11.960938,-21.796875 10.875,-22.125 9.46875,-22.125 c -2.449219,0 -4.195312,0.976562 -5.234375,2.921875 l -0.375,0.0625 -1.59375,-1.75 c 0.644531,-1.113281 1.582031,-2.015625 2.8125,-2.703125 1.226563,-0.6875 2.691406,-1.03125 4.390625,-1.03125 1.539062,0 2.859375,0.246094 3.953125,0.734375 1.09375,0.480469 1.921875,1.171875 2.484375,2.078125 0.5625,0.90625 0.84375,1.992188 0.84375,3.25 0,1.199219 -0.351562,2.25 -1.046875,3.15625 -0.6875,0.898438 -1.601563,1.605469 -2.734375,2.125 v 0.34375 c 1.601562,0.386719 2.804688,1.109375 3.609375,2.171875 0.8125,1.054687 1.21875,2.351563 1.21875,3.890625 0,2.304688 -0.6875,4.085938 -2.0625,5.34375 -1.367187,1.25 -3.40625,1.875 -6.125,1.875 z m 0,0"
           id="path330" />
      </g>
    </g>
  </g>
  <g
     fill="#000000"
     fill-opacity="1"
     id="g344"
     transform="translate(-1.8355185,-105.23439)">
    <g
       transform="translate(430.98951,240.66099)"
       id="g342">
      <g
         id="g340">
        <path
           d="m 1.46875,-1.109375 c 0,-1.34375 0.144531,-2.421875 0.4375,-3.234375 0.289062,-0.820312 0.789062,-1.585938 1.5,-2.296875 0.707031,-0.707031 1.835938,-1.625 3.390625,-2.75 L 9.46875,-11.34375 c 0.976562,-0.71875 1.773438,-1.378906 2.390625,-1.984375 0.625,-0.613281 1.113281,-1.273437 1.46875,-1.984375 0.363281,-0.71875 0.546875,-1.519531 0.546875,-2.40625 0,-1.4375 -0.382812,-2.519531 -1.140625,-3.25 -0.761719,-0.726562 -1.960937,-1.09375 -3.59375,-1.09375 -1.28125,0 -2.421875,0.304688 -3.421875,0.90625 -0.992188,0.59375 -1.78125,1.4375 -2.375,2.53125 L 2.953125,-18.5625 1.25,-20.359375 c 0.8125,-1.320313 1.882812,-2.363281 3.21875,-3.125 1.332031,-0.757813 2.890625,-1.140625 4.671875,-1.140625 1.726563,0 3.160156,0.296875 4.296875,0.890625 1.144531,0.585937 1.988281,1.398437 2.53125,2.4375 0.539062,1.03125 0.8125,2.226563 0.8125,3.578125 0,1.085938 -0.230469,2.101562 -0.6875,3.046875 -0.449219,0.9375 -1.089844,1.824219 -1.921875,2.65625 -0.824219,0.824219 -1.859375,1.699219 -3.109375,2.625 l -2.71875,1.96875 c -1,0.742187 -1.773438,1.371094 -2.3125,1.890625 C 5.488281,-5.007812 5.09375,-4.5 4.84375,-4 c -0.25,0.492188 -0.375,1.039062 -0.375,1.640625 h 12.3125 V 0 H 1.46875 Z m 0,0"
           id="path338" />
      </g>
    </g>
  </g>
  <g
     fill="#000000"
     fill-opacity="1"
     id="g352"
     transform="translate(-1.8355185,-105.23439)">
    <g
       transform="translate(475.81844,178.436)"
       id="g350">
      <g
         id="g348">
        <path
           d="M 9.609375,0.34375 C 7.253906,0.34375 5.382812,-0.1875 4,-1.25 2.613281,-2.3125 1.71875,-3.78125 1.3125,-5.65625 l 2.125,-0.96875 0.375,0.0625 c 0.425781,1.449219 1.078125,2.539062 1.953125,3.265625 0.882813,0.71875 2.164063,1.078125 3.84375,1.078125 1.71875,0 3.023437,-0.390625 3.921875,-1.171875 C 14.425781,-4.179688 14.875,-5.34375 14.875,-6.875 c 0,-1.488281 -0.460938,-2.625 -1.375,-3.40625 -0.90625,-0.789062 -2.339844,-1.1875 -4.296875,-1.1875 H 6.5625 v -2.359375 h 2.359375 c 1.519531,0 2.726563,-0.378906 3.625,-1.140625 0.90625,-0.757812 1.359375,-1.828125 1.359375,-3.203125 0,-1.320313 -0.390625,-2.3125 -1.171875,-2.96875 C 11.960938,-21.796875 10.875,-22.125 9.46875,-22.125 c -2.449219,0 -4.195312,0.976562 -5.234375,2.921875 l -0.375,0.0625 -1.59375,-1.75 c 0.644531,-1.113281 1.582031,-2.015625 2.8125,-2.703125 1.226563,-0.6875 2.691406,-1.03125 4.390625,-1.03125 1.539062,0 2.859375,0.246094 3.953125,0.734375 1.09375,0.480469 1.921875,1.171875 2.484375,2.078125 0.5625,0.90625 0.84375,1.992188 0.84375,3.25 0,1.199219 -0.351562,2.25 -1.046875,3.15625 -0.6875,0.898438 -1.601563,1.605469 -2.734375,2.125 v 0.34375 c 1.601562,0.386719 2.804688,1.109375 3.609375,2.171875 0.8125,1.054687 1.21875,2.351563 1.21875,3.890625 0,2.304688 -0.6875,4.085938 -2.0625,5.34375 -1.367187,1.25 -3.40625,1.875 -6.125,1.875 z m 0,0"
           id="path346" />
      </g>
    </g>
  </g>
  <g
     fill="#000000"
     fill-opacity="1"
     id="g360"
     transform="translate(-1.8355185,-105.23439)">
    <g
       transform="translate(608.88014,397.5508)"
       id="g358">
      <g
         id="g356">
        <path
           d="m 15.1875,0 h -2.703125 v -5.796875 h -11.375 v -2.28125 l 10.71875,-16.1875 H 15.1875 v 16.1875 h 4.203125 v 2.28125 H 15.1875 Z M 4.46875,-8.4375 4.609375,-8.078125 h 7.875 v -12.25 l -0.375,-0.0625 z m 0,0"
           id="path354" />
      </g>
    </g>
  </g>
  <g
     fill="#000000"
     fill-opacity="1"
     id="g368"
     transform="translate(-1.8355185,-105.23439)">
    <g
       transform="translate(690.57935,317.89155)"
       id="g366">
      <g
         id="g364">
        <path
           d="m 1.46875,-1.109375 c 0,-1.34375 0.144531,-2.421875 0.4375,-3.234375 0.289062,-0.820312 0.789062,-1.585938 1.5,-2.296875 0.707031,-0.707031 1.835938,-1.625 3.390625,-2.75 L 9.46875,-11.34375 c 0.976562,-0.71875 1.773438,-1.378906 2.390625,-1.984375 0.625,-0.613281 1.113281,-1.273437 1.46875,-1.984375 0.363281,-0.71875 0.546875,-1.519531 0.546875,-2.40625 0,-1.4375 -0.382812,-2.519531 -1.140625,-3.25 -0.761719,-0.726562 -1.960937,-1.09375 -3.59375,-1.09375 -1.28125,0 -2.421875,0.304688 -3.421875,0.90625 -0.992188,0.59375 -1.78125,1.4375 -2.375,2.53125 L 2.953125,-18.5625 1.25,-20.359375 c 0.8125,-1.320313 1.882812,-2.363281 3.21875,-3.125 1.332031,-0.757813 2.890625,-1.140625 4.671875,-1.140625 1.726563,0 3.160156,0.296875 4.296875,0.890625 1.144531,0.585937 1.988281,1.398437 2.53125,2.4375 0.539062,1.03125 0.8125,2.226563 0.8125,3.578125 0,1.085938 -0.230469,2.101562 -0.6875,3.046875 -0.449219,0.9375 -1.089844,1.824219 -1.921875,2.65625 -0.824219,0.824219 -1.859375,1.699219 -3.109375,2.625 l -2.71875,1.96875 c -1,0.742187 -1.773438,1.371094 -2.3125,1.890625 C 5.488281,-5.007812 5.09375,-4.5 4.84375,-4 c -0.25,0.492188 -0.375,1.039062 -0.375,1.640625 h 12.3125 V 0 H 1.46875 Z m 0,0"
           id="path362" />
      </g>
    </g>
  </g>
  <g
     fill="#000000"
     fill-opacity="1"
     id="g376"
     transform="translate(-1.8355185,-105.23439)">
    <g
       transform="translate(788.86732,538.79699)"
       id="g374">
      <g
         id="g372">
        <path
           d="m 1.46875,-1.109375 c 0,-1.34375 0.144531,-2.421875 0.4375,-3.234375 0.289062,-0.820312 0.789062,-1.585938 1.5,-2.296875 0.707031,-0.707031 1.835938,-1.625 3.390625,-2.75 L 9.46875,-11.34375 c 0.976562,-0.71875 1.773438,-1.378906 2.390625,-1.984375 0.625,-0.613281 1.113281,-1.273437 1.46875,-1.984375 0.363281,-0.71875 0.546875,-1.519531 0.546875,-2.40625 0,-1.4375 -0.382812,-2.519531 -1.140625,-3.25 -0.761719,-0.726562 -1.960937,-1.09375 -3.59375,-1.09375 -1.28125,0 -2.421875,0.304688 -3.421875,0.90625 -0.992188,0.59375 -1.78125,1.4375 -2.375,2.53125 L 2.953125,-18.5625 1.25,-20.359375 c 0.8125,-1.320313 1.882812,-2.363281 3.21875,-3.125 1.332031,-0.757813 2.890625,-1.140625 4.671875,-1.140625 1.726563,0 3.160156,0.296875 4.296875,0.890625 1.144531,0.585937 1.988281,1.398437 2.53125,2.4375 0.539062,1.03125 0.8125,2.226563 0.8125,3.578125 0,1.085938 -0.230469,2.101562 -0.6875,3.046875 -0.449219,0.9375 -1.089844,1.824219 -1.921875,2.65625 -0.824219,0.824219 -1.859375,1.699219 -3.109375,2.625 l -2.71875,1.96875 c -1,0.742187 -1.773438,1.371094 -2.3125,1.890625 C 5.488281,-5.007812 5.09375,-4.5 4.84375,-4 c -0.25,0.492188 -0.375,1.039062 -0.375,1.640625 h 12.3125 V 0 H 1.46875 Z m 0,0"
           id="path370" />
      </g>
    </g>
  </g>
  <g
     fill="#000000"
     fill-opacity="1"
     id="g384"
     transform="translate(-1.8355185,-105.23439)">
    <g
       transform="translate(1001.9052,419.81234)"
       id="g382">
      <g
         id="g380">
        <path
           d="M 1.734375,0 V -2.359375 H 8.34375 v -18.5625 l -0.375,-0.09375 c -1.074219,0.53125 -2.015625,0.9375 -2.828125,1.21875 -0.804687,0.28125 -1.835937,0.558594 -3.09375,0.828125 v -2.625 c 1.25,-0.269531 2.484375,-0.628906 3.703125,-1.078125 1.226562,-0.457031 2.335938,-0.988281 3.328125,-1.59375 h 2.0625 v 21.90625 H 17.0625 V 0 Z m 0,0"
           id="path378" />
      </g>
    </g>
  </g>
  <g
     fill="#000000"
     fill-opacity="1"
     id="g392"
     transform="translate(-1.8355185,-105.23439)">
    <g
       transform="translate(1064.9075,419.81234)"
       id="g390">
      <g
         id="g388">
        <path
           d="m 1.46875,-1.109375 c 0,-1.34375 0.144531,-2.421875 0.4375,-3.234375 0.289062,-0.820312 0.789062,-1.585938 1.5,-2.296875 0.707031,-0.707031 1.835938,-1.625 3.390625,-2.75 L 9.46875,-11.34375 c 0.976562,-0.71875 1.773438,-1.378906 2.390625,-1.984375 0.625,-0.613281 1.113281,-1.273437 1.46875,-1.984375 0.363281,-0.71875 0.546875,-1.519531 0.546875,-2.40625 0,-1.4375 -0.382812,-2.519531 -1.140625,-3.25 -0.761719,-0.726562 -1.960937,-1.09375 -3.59375,-1.09375 -1.28125,0 -2.421875,0.304688 -3.421875,0.90625 -0.992188,0.59375 -1.78125,1.4375 -2.375,2.53125 L 2.953125,-18.5625 1.25,-20.359375 c 0.8125,-1.320313 1.882812,-2.363281 3.21875,-3.125 1.332031,-0.757813 2.890625,-1.140625 4.671875,-1.140625 1.726563,0 3.160156,0.296875 4.296875,0.890625 1.144531,0.585937 1.988281,1.398437 2.53125,2.4375 0.539062,1.03125 0.8125,2.226563 0.8125,3.578125 0,1.085938 -0.230469,2.101562 -0.6875,3.046875 -0.449219,0.9375 -1.089844,1.824219 -1.921875,2.65625 -0.824219,0.824219 -1.859375,1.699219 -3.109375,2.625 l -2.71875,1.96875 c -1,0.742187 -1.773438,1.371094 -2.3125,1.890625 C 5.488281,-5.007812 5.09375,-4.5 4.84375,-4 c -0.25,0.492188 -0.375,1.039062 -0.375,1.640625 h 12.3125 V 0 H 1.46875 Z m 0,0"
           id="path386" />
      </g>
    </g>
  </g>
  <g
     fill="#000000"
     fill-opacity="1"
     id="g400"
     transform="translate(-1.8355185,-105.23439)">
    <g
       transform="translate(1126.6882,419.81234)"
       id="g398">
      <g
         id="g396">
        <path
           d="M 9.609375,0.34375 C 7.253906,0.34375 5.382812,-0.1875 4,-1.25 2.613281,-2.3125 1.71875,-3.78125 1.3125,-5.65625 l 2.125,-0.96875 0.375,0.0625 c 0.425781,1.449219 1.078125,2.539062 1.953125,3.265625 0.882813,0.71875 2.164063,1.078125 3.84375,1.078125 1.71875,0 3.023437,-0.390625 3.921875,-1.171875 C 14.425781,-4.179688 14.875,-5.34375 14.875,-6.875 c 0,-1.488281 -0.460938,-2.625 -1.375,-3.40625 -0.90625,-0.789062 -2.339844,-1.1875 -4.296875,-1.1875 H 6.5625 v -2.359375 h 2.359375 c 1.519531,0 2.726563,-0.378906 3.625,-1.140625 0.90625,-0.757812 1.359375,-1.828125 1.359375,-3.203125 0,-1.320313 -0.390625,-2.3125 -1.171875,-2.96875 C 11.960938,-21.796875 10.875,-22.125 9.46875,-22.125 c -2.449219,0 -4.195312,0.976562 -5.234375,2.921875 l -0.375,0.0625 -1.59375,-1.75 c 0.644531,-1.113281 1.582031,-2.015625 2.8125,-2.703125 1.226563,-0.6875 2.691406,-1.03125 4.390625,-1.03125 1.539062,0 2.859375,0.246094 3.953125,0.734375 1.09375,0.480469 1.921875,1.171875 2.484375,2.078125 0.5625,0.90625 0.84375,1.992188 0.84375,3.25 0,1.199219 -0.351562,2.25 -1.046875,3.15625 -0.6875,0.898438 -1.601563,1.605469 -2.734375,2.125 v 0.34375 c 1.601562,0.386719 2.804688,1.109375 3.609375,2.171875 0.8125,1.054687 1.21875,2.351563 1.21875,3.890625 0,2.304688 -0.6875,4.085938 -2.0625,5.34375 -1.367187,1.25 -3.40625,1.875 -6.125,1.875 z m 0,0"
           id="path394" />
      </g>
    </g>
  </g>
  <g
     fill="#000000"
     fill-opacity="1"
     id="g408"
     transform="translate(-1.8355185,-105.23439)">
    <g
       transform="translate(1188.469,419.81234)"
       id="g406">
      <g
         id="g404">
        <path
           d="m 15.1875,0 h -2.703125 v -5.796875 h -11.375 v -2.28125 l 10.71875,-16.1875 H 15.1875 v 16.1875 h 4.203125 v 2.28125 H 15.1875 Z M 4.46875,-8.4375 4.609375,-8.078125 h 7.875 v -12.25 l -0.375,-0.0625 z m 0,0"
           id="path402" />
      </g>
    </g>
  </g>
  <g
     fill="#000000"
     fill-opacity="1"
     id="g416"
     transform="translate(-1.8355185,-105.23439)">
    <g
       transform="translate(948.68473,389.99839)"
       id="g414">
      <g
         id="g412">
        <path
           d="m 11.9375,0.34375 c -1.78125,0 -3.382812,-0.4257812 -4.796875,-1.28125 C 5.722656,-1.789062 4.59375,-3.148438 3.75,-5.015625 c -0.84375,-1.863281 -1.265625,-4.238281 -1.265625,-7.125 0,-2.875 0.421875,-5.242187 1.265625,-7.109375 0.84375,-1.863281 1.972656,-3.222656 3.390625,-4.078125 1.414063,-0.863281 3.015625,-1.296875 4.796875,-1.296875 1.78125,0 3.378906,0.433594 4.796875,1.296875 1.414063,0.855469 2.539063,2.214844 3.375,4.078125 0.832031,1.867188 1.25,4.234375 1.25,7.109375 0,2.886719 -0.417969,5.261719 -1.25,7.125 -0.835937,1.867187 -1.960937,3.226563 -3.375,4.078125 -1.417969,0.8554688 -3.015625,1.28125 -4.796875,1.28125 z m 0,-2.640625 c 2.113281,0 3.710938,-0.757813 4.796875,-2.28125 1.09375,-1.519531 1.640625,-4.039063 1.640625,-7.5625 0,-3.519531 -0.546875,-6.039063 -1.640625,-7.5625 -1.085937,-1.519531 -2.683594,-2.28125 -4.796875,-2.28125 -1.398438,0 -2.574219,0.324219 -3.53125,0.96875 -0.949219,0.636719 -1.671875,1.683594 -2.171875,3.140625 -0.5,1.449219 -0.75,3.359375 -0.75,5.734375 0,2.386719 0.25,4.304687 0.75,5.75 0.5,1.449219 1.222656,2.496094 2.171875,3.140625 0.957031,0.636719 2.132812,0.953125 3.53125,0.953125 z m 0,0"
           id="path410" />
      </g>
    </g>
  </g>
  <g
     fill="#000000"
     fill-opacity="1"
     id="g424"
     transform="translate(-1.8355185,-105.23439)">
    <g
       transform="translate(953.07951,346.38791)"
       id="g422">
      <g
         id="g420">
        <path
           d="M 1.734375,0 V -2.359375 H 8.34375 v -18.5625 l -0.375,-0.09375 c -1.074219,0.53125 -2.015625,0.9375 -2.828125,1.21875 -0.804687,0.28125 -1.835937,0.558594 -3.09375,0.828125 v -2.625 c 1.25,-0.269531 2.484375,-0.628906 3.703125,-1.078125 1.226562,-0.457031 2.335938,-0.988281 3.328125,-1.59375 h 2.0625 v 21.90625 H 17.0625 V 0 Z m 0,0"
           id="path418" />
      </g>
    </g>
  </g>
  <g
     fill="#000000"
     fill-opacity="1"
     id="g432"
     transform="translate(-1.8355185,-105.23439)">
    <g
       transform="translate(953.44622,302.77744)"
       id="g430">
      <g
         id="g428">
        <path
           d="m 1.46875,-1.109375 c 0,-1.34375 0.144531,-2.421875 0.4375,-3.234375 0.289062,-0.820312 0.789062,-1.585938 1.5,-2.296875 0.707031,-0.707031 1.835938,-1.625 3.390625,-2.75 L 9.46875,-11.34375 c 0.976562,-0.71875 1.773438,-1.378906 2.390625,-1.984375 0.625,-0.613281 1.113281,-1.273437 1.46875,-1.984375 0.363281,-0.71875 0.546875,-1.519531 0.546875,-2.40625 0,-1.4375 -0.382812,-2.519531 -1.140625,-3.25 -0.761719,-0.726562 -1.960937,-1.09375 -3.59375,-1.09375 -1.28125,0 -2.421875,0.304688 -3.421875,0.90625 -0.992188,0.59375 -1.78125,1.4375 -2.375,2.53125 L 2.953125,-18.5625 1.25,-20.359375 c 0.8125,-1.320313 1.882812,-2.363281 3.21875,-3.125 1.332031,-0.757813 2.890625,-1.140625 4.671875,-1.140625 1.726563,0 3.160156,0.296875 4.296875,0.890625 1.144531,0.585937 1.988281,1.398437 2.53125,2.4375 0.539062,1.03125 0.8125,2.226563 0.8125,3.578125 0,1.085938 -0.230469,2.101562 -0.6875,3.046875 -0.449219,0.9375 -1.089844,1.824219 -1.921875,2.65625 -0.824219,0.824219 -1.859375,1.699219 -3.109375,2.625 l -2.71875,1.96875 c -1,0.742187 -1.773438,1.371094 -2.3125,1.890625 C 5.488281,-5.007812 5.09375,-4.5 4.84375,-4 c -0.25,0.492188 -0.375,1.039062 -0.375,1.640625 h 12.3125 V 0 H 1.46875 Z m 0,0"
           id="path426" />
      </g>
    </g>
  </g>
  <g
     fill="#000000"
     fill-opacity="1"
     id="g440"
     transform="translate(-1.8355185,-105.23439)">
    <g
       transform="translate(952.26854,259.16693)"
       id="g438">
      <g
         id="g436">
        <path
           d="M 9.609375,0.34375 C 7.253906,0.34375 5.382812,-0.1875 4,-1.25 2.613281,-2.3125 1.71875,-3.78125 1.3125,-5.65625 l 2.125,-0.96875 0.375,0.0625 c 0.425781,1.449219 1.078125,2.539062 1.953125,3.265625 0.882813,0.71875 2.164063,1.078125 3.84375,1.078125 1.71875,0 3.023437,-0.390625 3.921875,-1.171875 C 14.425781,-4.179688 14.875,-5.34375 14.875,-6.875 c 0,-1.488281 -0.460938,-2.625 -1.375,-3.40625 -0.90625,-0.789062 -2.339844,-1.1875 -4.296875,-1.1875 H 6.5625 v -2.359375 h 2.359375 c 1.519531,0 2.726563,-0.378906 3.625,-1.140625 0.90625,-0.757812 1.359375,-1.828125 1.359375,-3.203125 0,-1.320313 -0.390625,-2.3125 -1.171875,-2.96875 C 11.960938,-21.796875 10.875,-22.125 9.46875,-22.125 c -2.449219,0 -4.195312,0.976562 -5.234375,2.921875 l -0.375,0.0625 -1.59375,-1.75 c 0.644531,-1.113281 1.582031,-2.015625 2.8125,-2.703125 1.226563,-0.6875 2.691406,-1.03125 4.390625,-1.03125 1.539062,0 2.859375,0.246094 3.953125,0.734375 1.09375,0.480469 1.921875,1.171875 2.484375,2.078125 0.5625,0.90625 0.84375,1.992188 0.84375,3.25 0,1.199219 -0.351562,2.25 -1.046875,3.15625 -0.6875,0.898438 -1.601563,1.605469 -2.734375,2.125 v 0.34375 c 1.601562,0.386719 2.804688,1.109375 3.609375,2.171875 0.8125,1.054687 1.21875,2.351563 1.21875,3.890625 0,2.304688 -0.6875,4.085938 -2.0625,5.34375 -1.367187,1.25 -3.40625,1.875 -6.125,1.875 z m 0,0"
           id="path434" />
      </g>
    </g>
  </g>
  <g
     fill="#000000"
     fill-opacity="1"
     id="g448"
     transform="translate(-1.8355185,-105.23439)">
    <g
       transform="translate(950.55239,215.55646)"
       id="g446">
      <g
         id="g444">
        <path
           d="m 15.1875,0 h -2.703125 v -5.796875 h -11.375 v -2.28125 l 10.71875,-16.1875 H 15.1875 v 16.1875 h 4.203125 v 2.28125 H 15.1875 Z M 4.46875,-8.4375 4.609375,-8.078125 h 7.875 v -12.25 l -0.375,-0.0625 z m 0,0"
           id="path442" />
      </g>
    </g>
  </g>
  <g
     clip-path="url(#2c30fc2112)"
     id="g452"
     transform="translate(-1.8355185,-105.23439)">
    <path
       fill="#5e17eb"
       d="m 995.64453,334.21875 h 31.26567 v 43.61328 h -31.26567 z m 0,0"
       fill-opacity="1"
       fill-rule="nonzero"
       id="path450" />
  </g>
  <g
     clip-path="url(#4b67501f1d)"
     id="g456"
     transform="translate(-1.8355185,-105.23439)">
    <path
       fill="#5e17eb"
       d="m 1058.1719,203.38672 h 31.2656 v 174.44531 h -31.2656 z m 0,0"
       fill-opacity="1"
       fill-rule="nonzero"
       id="path454" />
  </g>
  <g
     clip-path="url(#b65d7c963e)"
     id="g460"
     transform="translate(-1.8355185,-105.23439)">
    <path
       fill="#5e17eb"
       d="m 1120.6992,290.60937 h 31.2656 v 87.22266 h -31.2656 z m 0,0"
       fill-opacity="1"
       fill-rule="nonzero"
       id="path458" />
  </g>
  <g
     clip-path="url(#fa0c314d8c)"
     id="g464"
     transform="translate(-1.8355185,-105.23439)">
    <path
       fill="#5e17eb"
       d="m 1183.2266,334.21875 h 31.2656 v 43.61328 h -31.2656 z m 0,0"
       fill-opacity="1"
       fill-rule="nonzero"
       id="path462" />
  </g>
</svg>
